# xmcd CD database file
#
# Track frame offsets:
#	150
#	12048
#	25925
#	45117
#	58833
#	70858
#	84671
#	98615
#	119293
#	134525
#	166349
#	178189
#	189660
#	204157
#	231372
#	257879
#	280546
#	302331
#	325567
#	345087
#
# Disc length: 4780 seconds
#
# Revision: 0
# Processed by: cddbd v1.5.2PL0 Copyright (c) Steve Scherf et al.
# Submitted via: CDex 1.51
#
DISCID=0112aa14
DTITLE=Stan Kenton - Artistry in Rhythm - CD 2
DYEAR=2007
DGENRE=Jazz
TTITLE0=Atistry Jump
TTITLE1=Interlude
TTITLE2=Intermission Riff
TTITLE3=Minor Riff
TTITLE4=Collaboration
TTITLE5=painted Rhythm
TTITLE6=Southern Scandal
TTITLE7=The Peanut Vendor
TTITLE8=Eager Beaver
TTITLE9=Concerto to End All Concertos
TTITLE10=Artistry in Boogie
TTITLE11=Lover
TTITLE12=Unison Riff
TTITLE13=Fuego Cubano (Cuban Fire)
TTITLE14=El Congo Valiente (Valiant Congo)
TTITLE15=Recuerdos (Reminiscences)
TTITLE16=Quien Sabe (Who Knows)
TTITLE17=La Guera Baila ( The Fair Ones Dance)
TTITLE18=La Suerte de los Tontos (Fortune of the Fools)
TTITLE19=Tres Corazones (Three Hearts)
EXTD=YEAR: 2007
EXTT0=
EXTT1=
EXTT2=
EXTT3=
EXTT4=
EXTT5=
EXTT6=
EXTT7=
EXTT8=
EXTT9=
EXTT10=
EXTT11=
EXTT12=
EXTT13=
EXTT14=
EXTT15=
EXTT16=
EXTT17=
EXTT18=
EXTT19=
PLAYORDER=
